HIERARCHY
ROOT Hips
{
	OFFSET 0.00000 0.00000 0.00000
	CHANNELS 6 Xposition Yposition Zposition Zrotation Yrotation Xrotation 
	JOINT LHipJoint
	{
		OFFSET 0 0 0
		CHANNELS 3 Zrotation Yrotation Xrotation
		JOINT LeftHip
		{
			OFFSET 1.85742 -1.74412 1.01653
			CHANNELS 3 Zrotation Yrotation Xrotation
			JOINT LeftKnee
			{
				OFFSET 2.54803 -7.00067 0.00000
				CHANNELS 3 Zrotation Yrotation Xrotation
				JOINT LeftAnkle
				{
					OFFSET 2.51202 -6.90173 0.00000
					CHANNELS 3 Zrotation Yrotation Xrotation
					JOINT LeftToe
					{
						OFFSET 0.17547 -0.48209 1.64281
						CHANNELS 3 Zrotation Yrotation Xrotation
						End Site
						{
							OFFSET 0.00000 -0.00000 0.86587
						}
					}
				}
			}
		}
	}
	JOINT RHipJoint
	{
		OFFSET 0 0 0
		CHANNELS 3 Zrotation Yrotation Xrotation
		JOINT RightHip
		{
			OFFSET -1.95533 -1.74413 1.01654
			CHANNELS 3 Zrotation Yrotation Xrotation
			JOINT RightKnee
			{
				OFFSET -2.49465 -6.85400 0.00000
				CHANNELS 3 Zrotation Yrotation Xrotation
				JOINT RightAnkle
				{
					OFFSET -2.54783 -7.00010 0.00000
					CHANNELS 3 Zrotation Yrotation Xrotation
					JOINT RightToe
					{
						OFFSET -0.18513 -0.50864 1.69288
						CHANNELS 3 Zrotation Yrotation Xrotation
						End Site
						{
							OFFSET -0.00000 -0.00000 0.89242
						}
					}
				}
			}
		}
	}
	JOINT lowerback
	{
		OFFSET 0 0 0
		CHANNELS 3 Zrotation Yrotation Xrotation
		JOINT Chest
		{
			OFFSET 0.02173 2.16290 -0.15998
			CHANNELS 3 Zrotation Yrotation Xrotation
			JOINT Chest2
			{
				OFFSET 0.00940 2.17323 -0.00467
				CHANNELS 3 Zrotation Yrotation Xrotation
				JOINT lowerneck
				{
					OFFSET 0 0 0
					CHANNELS 3 Zrotation Yrotation Xrotation
					JOINT Neck
					{
						OFFSET 0.01475 1.85823 0.31113
						CHANNELS 3 Zrotation Yrotation Xrotation
						JOINT Head
						{
							OFFSET 0.01902 1.88783 -0.37187
							CHANNELS 3 Zrotation Yrotation Xrotation
							End Site
							{
								OFFSET 0.00489 1.93211 -0.16169
							}
						}
					}
				}
				JOINT LeftCollar
				{
					OFFSET 0 0 0
					CHANNELS 3 Zrotation Yrotation Xrotation
					JOINT LeftShoulder
					{
						OFFSET 3.34199 1.32384 -0.07862
CHANNELS 3 Zrotation Xrotation Yrotation
						JOINT LeftElbow
						{
OFFSET 0 -5.279500 0.000000
CHANNELS 3 Zrotation Xrotation Yrotation
							JOINT LeftWrist
							{
OFFSET 0 -3.535040 0.000000
CHANNELS 3 Zrotation Xrotation Yrotation
								JOINT lhand
								{
									OFFSET 0 0 0
CHANNELS 3 Zrotation Xrotation Yrotation
									JOINT LFingers
									{
OFFSET 0 -0.667950 0.000000
CHANNELS 3 Zrotation Xrotation Yrotation
										End Site
										{
OFFSET 0 -0.538520 0.000000
										}
									}
								}
								JOINT LThumb
								{
OFFSET 0 0.000000 0.000000
CHANNELS 3 Zrotation Xrotation Yrotation
									End Site
									{
OFFSET 0 -0.546740 0.546740
									}
								}
							}
						}
					}
				}
				JOINT RightCollar
				{
					OFFSET 0 0 0
					CHANNELS 3 Zrotation Yrotation Xrotation
					JOINT RightShoulder
					{
						OFFSET -3.16149 1.45719 -0.50507
CHANNELS 3 Zrotation Xrotation Yrotation
						JOINT RightElbow
						{
OFFSET 0 -5.250350 0.000000
CHANNELS 3 Zrotation Xrotation Yrotation
							JOINT RightWrist
							{
OFFSET 0 -3.588840 0.000000
CHANNELS 3 Zrotation Xrotation Yrotation
								JOINT rhand
								{
									OFFSET 0 0 0
CHANNELS 3 Zrotation Xrotation Yrotation
									JOINT RFingers
									{
OFFSET 0 -0.779240 0.000000
CHANNELS 3 Zrotation Xrotation Yrotation
										End Site
										{
OFFSET 0 -0.628240 0.000000
										}
									}
								}
								JOINT RThumb
								{
OFFSET 0 0.000000 0.000000
CHANNELS 3 Zrotation Xrotation Yrotation
									End Site
									{
OFFSET 0 -0.637830 0.637830
									}
								}
							}
						}
					}
				}
			}
		}
	}
}
MOTION
Frames: 4
Frame Time: 0.008333333333333333
12.680500 17.438700 -1.041700 -0.042100 15.965600 2.820400 0.000000 0.000000 0.000000 -17.381600 -16.036100 -8.204000 2.259600 9.387100 27.013900 1.097500 0.210300 -19.885900 2.820500 -10.398700 -30.277600 0.000000 0.000000 0.000000 18.587800 22.660400 -0.331700 -1.652600 -8.101400 23.022600 0.016400 -14.634400 -20.605100 -1.504500 7.747100 -21.948500 -3.712800 1.891100 1.870300 0.611700 2.400100 -4.118100 2.551600 1.366800 -5.501500 2.804900 2.793700 -22.744100 -0.051600 3.058100 27.801300 0.058500 1.667700 13.180300 0.000000 0.000000 0.000000 7.665800 4.439200 -39.412500 20.903500 -31.715600 5.999100 33.880600 -8.539400 -53.525500 0.000000 0.000000 0.000000 -7.125000 0.000000 0.000000 -73.487700 84.869600 68.488400 0.000000 0.000000 0.000000 -9.409000 7.803600 32.944500 -10.258100 -17.142200 -1.550100 -22.123900 -28.901700 -13.507700 0.000000 0.000000 0.000000 7.125000 0.000000 -0.000000 3.600200 15.461900 2.515100
12.761751 17.414221 -1.026131 -1.435405 14.067976 2.372308 0.000000 0.000000 0.000000 -16.618556 -17.534578 -7.503835 2.506824 9.850354 28.493466 1.234294 2.699944 -22.120685 2.299990 -9.464436 -27.259647 0.000000 0.000000 0.000000 20.543498 25.594096 1.879662 -1.443043 -7.594295 21.488359 0.281507 -16.403034 -20.323578 -1.523661 7.794036 -22.090332 -1.776033 1.482937 1.598255 0.406753 1.935770 -3.932200 1.298561 1.043803 -5.031345 3.520697 3.375165 -22.561549 -0.139965 3.651523 27.637341 0.005737 1.989148 13.105748 0.000000 0.000000 0.000000 5.551978 3.852192 -33.727421 17.242717 -27.176581 4.197633 33.486294 -3.704929 -52.743166 0.000000 0.000000 0.000000 -7.125000 0.000000 0.000000 -64.359855 84.661934 59.435419 0.000000 0.000000 0.000000 -5.686451 7.066975 12.446605 -14.988870 -24.129197 -3.222248 -13.848120 1.550526 -21.059607 0.000000 0.000000 0.000000 7.125000 0.000000 0.000000 9.386434 8.581022 7.991685
12.806402 17.403824 -1.029467 -0.857737 11.831428 2.766060 0.000000 0.000000 0.000000 -18.162213 -20.357938 -5.601194 2.447847 9.742382 28.146557 1.107660 7.771493 -24.116845 2.419140 -9.689463 -27.976762 0.000000 0.000000 0.000000 18.827808 24.283688 -0.268739 -1.576911 -7.922720 22.479561 -0.239739 -12.348185 -20.379033 -1.665932 8.132184 -23.116495 -2.455598 1.343115 1.147086 0.274293 1.726322 -3.838941 1.567168 0.958665 -4.687203 4.070637 3.368140 -21.965748 -0.601068 3.600658 27.461397 -0.285820 1.960828 12.935047 0.000000 0.000000 0.000000 5.309603 6.269669 -33.204114 15.932956 -25.429304 3.617331 33.652626 -5.404105 -53.031811 0.000000 0.000000 0.000000 -7.125000 0.000000 0.000000 -67.662330 84.764789 62.719296 0.000000 0.000000 0.000000 -5.263789 7.699218 15.857297 -19.203779 -29.669756 -5.132010 -13.766831 -1.060248 -21.303631 0.000000 0.000000 0.000000 7.125000 0.000000 0.000000 9.446696 8.345090 8.089324
12.790513 17.416541 -1.077960 -1.480597 10.725479 2.973863 0.000000 0.000000 0.000000 -17.259608 -20.121152 -6.191084 2.477427 9.796708 28.320949 1.114720 8.001843 -24.341867 2.076078 -9.022800 -25.866576 0.000000 0.000000 0.000000 19.022894 23.795143 -1.327853 -1.521420 -7.788674 22.073996 -0.317722 -10.783515 -19.405958 -1.847821 8.541532 -24.371519 -1.924069 1.223099 1.309860 0.203035 1.578002 -3.739192 1.202088 0.861968 -4.649698 4.394896 3.546104 -21.830474 -0.616544 3.722693 26.357933 -0.335114 2.037458 12.474600 0.000000 0.000000 0.000000 4.992176 7.251286 -31.832420 14.208640 -23.032010 2.909403 32.232035 -5.683796 -53.617199 0.000000 0.000000 0.000000 -7.125000 0.000000 0.000000 -71.766020 84.169776 66.115017 0.000000 0.000000 0.000000 -5.060344 8.261101 16.786388 -19.717898 -30.300953 -5.388311 -14.224440 -2.806367 -20.962754 0.000000 0.000000 0.000000 7.125000 0.000000 0.000000 9.143835 8.635161 7.769555
